<mxfile host="app.diagrams.net" modified="2024-05-04T12:40:53.368Z" agent="Mozilla/5.0 (Windows NT 10.0; Win64; x64) AppleWebKit/537.36 (KHTML, like Gecko) Chrome/124.0.0.0 Safari/537.36" etag="1aQsgEcAoAEFe1oQZP8J" version="21.6.6" type="device">
  <diagram id="prtHgNgQTEPvFCAcTncT" name="Page-1">
    <mxGraphModel dx="1687" dy="908" grid="1" gridSize="10" guides="1" tooltips="1" connect="1" arrows="1" fold="1" page="1" pageScale="1" pageWidth="827" pageHeight="1169" math="0" shadow="0">
      <root>
        <mxCell id="0" />
        <mxCell id="1" parent="0" />
        <mxCell id="dNxyNK7c78bLwvsdeMH5-19" value="System" style="swimlane;html=1;childLayout=stackLayout;resizeParent=1;resizeParentMax=0;horizontal=0;startSize=20;horizontalStack=0;" parent="1" vertex="1">
          <mxGeometry x="10" y="50" width="1620" height="610" as="geometry" />
        </mxCell>
        <mxCell id="dNxyNK7c78bLwvsdeMH5-20" value="Super User" style="swimlane;html=1;startSize=20;horizontal=0;" parent="dNxyNK7c78bLwvsdeMH5-19" vertex="1">
          <mxGeometry x="20" width="1600" height="190" as="geometry">
            <mxRectangle x="20" width="430" height="30" as="alternateBounds" />
          </mxGeometry>
        </mxCell>
        <mxCell id="6YeagFX_OvJK3ryJQX0Z-58" style="edgeStyle=orthogonalEdgeStyle;rounded=0;orthogonalLoop=1;jettySize=auto;html=1;" edge="1" parent="dNxyNK7c78bLwvsdeMH5-20" source="dNxyNK7c78bLwvsdeMH5-23" target="6YeagFX_OvJK3ryJQX0Z-33">
          <mxGeometry relative="1" as="geometry" />
        </mxCell>
        <mxCell id="dNxyNK7c78bLwvsdeMH5-23" value="" style="ellipse;whiteSpace=wrap;html=1;fillColor=#000000;" parent="dNxyNK7c78bLwvsdeMH5-20" vertex="1">
          <mxGeometry x="30" y="45" width="40" height="40" as="geometry" />
        </mxCell>
        <mxCell id="6YeagFX_OvJK3ryJQX0Z-62" style="edgeStyle=orthogonalEdgeStyle;rounded=0;orthogonalLoop=1;jettySize=auto;html=1;entryX=0.5;entryY=1;entryDx=0;entryDy=0;" edge="1" parent="dNxyNK7c78bLwvsdeMH5-20" source="dNxyNK7c78bLwvsdeMH5-24" target="6YeagFX_OvJK3ryJQX0Z-54">
          <mxGeometry relative="1" as="geometry">
            <Array as="points">
              <mxPoint x="240" y="140" />
              <mxPoint x="240" y="100" />
              <mxPoint x="220" y="100" />
            </Array>
          </mxGeometry>
        </mxCell>
        <mxCell id="dNxyNK7c78bLwvsdeMH5-24" value="Authentication" style="rounded=0;whiteSpace=wrap;html=1;fontFamily=Helvetica;fontSize=12;fontColor=#000000;align=center;" parent="dNxyNK7c78bLwvsdeMH5-20" vertex="1">
          <mxGeometry x="120" y="110" width="100" height="60" as="geometry" />
        </mxCell>
        <mxCell id="6YeagFX_OvJK3ryJQX0Z-93" style="edgeStyle=orthogonalEdgeStyle;rounded=0;orthogonalLoop=1;jettySize=auto;html=1;exitX=1;exitY=0.5;exitDx=0;exitDy=0;entryX=-0.106;entryY=0.552;entryDx=0;entryDy=0;entryPerimeter=0;" edge="1" parent="dNxyNK7c78bLwvsdeMH5-20" source="dNxyNK7c78bLwvsdeMH5-30" target="6YeagFX_OvJK3ryJQX0Z-12">
          <mxGeometry relative="1" as="geometry" />
        </mxCell>
        <mxCell id="dNxyNK7c78bLwvsdeMH5-30" value="Open Mission" style="rounded=0;whiteSpace=wrap;html=1;fontFamily=Helvetica;fontSize=12;fontColor=#000000;align=center;" parent="dNxyNK7c78bLwvsdeMH5-20" vertex="1">
          <mxGeometry x="420" y="10" width="110" height="60" as="geometry" />
        </mxCell>
        <mxCell id="L6pzd9U-8bud_ZznSoMF-4" value="Assign Mission" style="rounded=0;whiteSpace=wrap;html=1;fontFamily=Helvetica;fontSize=12;fontColor=#000000;align=center;" parent="dNxyNK7c78bLwvsdeMH5-20" vertex="1">
          <mxGeometry x="947" y="80" width="106" height="60" as="geometry" />
        </mxCell>
        <mxCell id="6YeagFX_OvJK3ryJQX0Z-17" style="edgeStyle=orthogonalEdgeStyle;rounded=0;orthogonalLoop=1;jettySize=auto;html=1;entryX=0;entryY=0.214;entryDx=0;entryDy=0;entryPerimeter=0;" edge="1" parent="dNxyNK7c78bLwvsdeMH5-20" source="6YeagFX_OvJK3ryJQX0Z-9" target="6YeagFX_OvJK3ryJQX0Z-11">
          <mxGeometry relative="1" as="geometry" />
        </mxCell>
        <mxCell id="6YeagFX_OvJK3ryJQX0Z-9" value="Attach Description" style="rounded=0;whiteSpace=wrap;html=1;fontFamily=Helvetica;fontSize=12;fontColor=#000000;align=center;" vertex="1" parent="dNxyNK7c78bLwvsdeMH5-20">
          <mxGeometry x="650" y="40" width="106" height="60" as="geometry" />
        </mxCell>
        <mxCell id="6YeagFX_OvJK3ryJQX0Z-18" style="edgeStyle=orthogonalEdgeStyle;rounded=0;orthogonalLoop=1;jettySize=auto;html=1;entryX=0;entryY=0.786;entryDx=0;entryDy=0;entryPerimeter=0;" edge="1" parent="dNxyNK7c78bLwvsdeMH5-20" source="6YeagFX_OvJK3ryJQX0Z-10" target="6YeagFX_OvJK3ryJQX0Z-11">
          <mxGeometry relative="1" as="geometry" />
        </mxCell>
        <mxCell id="6YeagFX_OvJK3ryJQX0Z-10" value="Mark Map" style="rounded=0;whiteSpace=wrap;html=1;fontFamily=Helvetica;fontSize=12;fontColor=#000000;align=center;" vertex="1" parent="dNxyNK7c78bLwvsdeMH5-20">
          <mxGeometry x="650" y="120" width="106" height="60" as="geometry" />
        </mxCell>
        <mxCell id="6YeagFX_OvJK3ryJQX0Z-14" style="edgeStyle=orthogonalEdgeStyle;rounded=0;orthogonalLoop=1;jettySize=auto;html=1;" edge="1" parent="dNxyNK7c78bLwvsdeMH5-20" source="6YeagFX_OvJK3ryJQX0Z-12" target="6YeagFX_OvJK3ryJQX0Z-10">
          <mxGeometry relative="1" as="geometry">
            <Array as="points">
              <mxPoint x="630" y="110" />
              <mxPoint x="630" y="150" />
            </Array>
          </mxGeometry>
        </mxCell>
        <mxCell id="6YeagFX_OvJK3ryJQX0Z-15" style="edgeStyle=orthogonalEdgeStyle;rounded=0;orthogonalLoop=1;jettySize=auto;html=1;" edge="1" parent="dNxyNK7c78bLwvsdeMH5-20" source="6YeagFX_OvJK3ryJQX0Z-12" target="6YeagFX_OvJK3ryJQX0Z-9">
          <mxGeometry relative="1" as="geometry">
            <Array as="points">
              <mxPoint x="630" y="110" />
              <mxPoint x="630" y="70" />
            </Array>
          </mxGeometry>
        </mxCell>
        <mxCell id="6YeagFX_OvJK3ryJQX0Z-12" value="" style="html=1;points=[];perimeter=orthogonalPerimeter;fillColor=strokeColor;" vertex="1" parent="dNxyNK7c78bLwvsdeMH5-20">
          <mxGeometry x="620" y="85" width="5" height="50" as="geometry" />
        </mxCell>
        <mxCell id="6YeagFX_OvJK3ryJQX0Z-20" style="edgeStyle=orthogonalEdgeStyle;rounded=0;orthogonalLoop=1;jettySize=auto;html=1;entryX=0;entryY=0.5;entryDx=0;entryDy=0;" edge="1" parent="dNxyNK7c78bLwvsdeMH5-20" source="6YeagFX_OvJK3ryJQX0Z-11" target="6YeagFX_OvJK3ryJQX0Z-44">
          <mxGeometry relative="1" as="geometry" />
        </mxCell>
        <mxCell id="6YeagFX_OvJK3ryJQX0Z-11" value="" style="html=1;points=[];perimeter=orthogonalPerimeter;fillColor=strokeColor;" vertex="1" parent="dNxyNK7c78bLwvsdeMH5-20">
          <mxGeometry x="770" y="40" width="5" height="140" as="geometry" />
        </mxCell>
        <mxCell id="6YeagFX_OvJK3ryJQX0Z-77" value="" style="edgeStyle=orthogonalEdgeStyle;rounded=0;orthogonalLoop=1;jettySize=auto;html=1;" edge="1" parent="dNxyNK7c78bLwvsdeMH5-20" source="6YeagFX_OvJK3ryJQX0Z-22" target="6YeagFX_OvJK3ryJQX0Z-74">
          <mxGeometry relative="1" as="geometry">
            <Array as="points">
              <mxPoint x="380" y="100" />
              <mxPoint x="380" y="100" />
            </Array>
          </mxGeometry>
        </mxCell>
        <mxCell id="6YeagFX_OvJK3ryJQX0Z-22" value="Receive SOS" style="rounded=0;whiteSpace=wrap;html=1;fontFamily=Helvetica;fontSize=12;fontColor=#000000;align=center;" vertex="1" parent="dNxyNK7c78bLwvsdeMH5-20">
          <mxGeometry x="330" y="110" width="110" height="60" as="geometry" />
        </mxCell>
        <mxCell id="6YeagFX_OvJK3ryJQX0Z-61" value="" style="edgeStyle=orthogonalEdgeStyle;rounded=0;orthogonalLoop=1;jettySize=auto;html=1;" edge="1" parent="dNxyNK7c78bLwvsdeMH5-20" source="6YeagFX_OvJK3ryJQX0Z-33" target="dNxyNK7c78bLwvsdeMH5-24">
          <mxGeometry relative="1" as="geometry">
            <Array as="points">
              <mxPoint x="130" y="105" />
              <mxPoint x="100" y="105" />
              <mxPoint x="100" y="140" />
            </Array>
          </mxGeometry>
        </mxCell>
        <mxCell id="6YeagFX_OvJK3ryJQX0Z-33" value="" style="rhombus;whiteSpace=wrap;html=1;fontFamily=Helvetica;fontSize=12;fontColor=#000000;align=center;" vertex="1" parent="dNxyNK7c78bLwvsdeMH5-20">
          <mxGeometry x="110" y="45" width="40" height="40" as="geometry" />
        </mxCell>
        <mxCell id="6YeagFX_OvJK3ryJQX0Z-28" value="" style="ellipse;html=1;shape=endState;fillColor=strokeColor;" vertex="1" parent="dNxyNK7c78bLwvsdeMH5-20">
          <mxGeometry x="1540" y="97.5" width="35" height="35" as="geometry" />
        </mxCell>
        <mxCell id="6YeagFX_OvJK3ryJQX0Z-39" style="edgeStyle=orthogonalEdgeStyle;rounded=0;orthogonalLoop=1;jettySize=auto;html=1;" edge="1" parent="dNxyNK7c78bLwvsdeMH5-20" source="6YeagFX_OvJK3ryJQX0Z-37" target="6YeagFX_OvJK3ryJQX0Z-28">
          <mxGeometry relative="1" as="geometry" />
        </mxCell>
        <mxCell id="6YeagFX_OvJK3ryJQX0Z-37" value="Complete Mission" style="rounded=0;whiteSpace=wrap;html=1;fontFamily=Helvetica;fontSize=12;fontColor=#000000;align=center;" vertex="1" parent="dNxyNK7c78bLwvsdeMH5-20">
          <mxGeometry x="1400" y="85" width="106" height="60" as="geometry" />
        </mxCell>
        <mxCell id="6YeagFX_OvJK3ryJQX0Z-84" style="edgeStyle=orthogonalEdgeStyle;rounded=0;orthogonalLoop=1;jettySize=auto;html=1;exitX=0.5;exitY=0;exitDx=0;exitDy=0;" edge="1" parent="dNxyNK7c78bLwvsdeMH5-20" source="6YeagFX_OvJK3ryJQX0Z-44" target="6YeagFX_OvJK3ryJQX0Z-82">
          <mxGeometry relative="1" as="geometry" />
        </mxCell>
        <mxCell id="6YeagFX_OvJK3ryJQX0Z-44" value="" style="rhombus;whiteSpace=wrap;html=1;fontFamily=Helvetica;fontSize=12;fontColor=#000000;align=center;" vertex="1" parent="dNxyNK7c78bLwvsdeMH5-20">
          <mxGeometry x="830" y="90" width="40" height="40" as="geometry" />
        </mxCell>
        <mxCell id="6YeagFX_OvJK3ryJQX0Z-60" value="" style="edgeStyle=orthogonalEdgeStyle;rounded=0;orthogonalLoop=1;jettySize=auto;html=1;" edge="1" parent="dNxyNK7c78bLwvsdeMH5-20" source="6YeagFX_OvJK3ryJQX0Z-54" target="6YeagFX_OvJK3ryJQX0Z-33">
          <mxGeometry relative="1" as="geometry" />
        </mxCell>
        <mxCell id="6YeagFX_OvJK3ryJQX0Z-66" style="edgeStyle=orthogonalEdgeStyle;rounded=0;orthogonalLoop=1;jettySize=auto;html=1;exitX=1;exitY=0.5;exitDx=0;exitDy=0;" edge="1" parent="dNxyNK7c78bLwvsdeMH5-20" source="6YeagFX_OvJK3ryJQX0Z-54" target="6YeagFX_OvJK3ryJQX0Z-65">
          <mxGeometry relative="1" as="geometry" />
        </mxCell>
        <mxCell id="6YeagFX_OvJK3ryJQX0Z-54" value="" style="rhombus;whiteSpace=wrap;html=1;fontFamily=Helvetica;fontSize=12;fontColor=#000000;align=center;" vertex="1" parent="dNxyNK7c78bLwvsdeMH5-20">
          <mxGeometry x="200" y="45" width="40" height="40" as="geometry" />
        </mxCell>
        <mxCell id="6YeagFX_OvJK3ryJQX0Z-55" value="Success?" style="text;html=1;align=center;verticalAlign=middle;resizable=0;points=[];autosize=1;strokeColor=none;fillColor=none;" vertex="1" parent="dNxyNK7c78bLwvsdeMH5-20">
          <mxGeometry x="180" y="15" width="80" height="30" as="geometry" />
        </mxCell>
        <mxCell id="6YeagFX_OvJK3ryJQX0Z-63" value="[No]" style="text;html=1;align=center;verticalAlign=middle;resizable=0;points=[];autosize=1;strokeColor=none;fillColor=none;" vertex="1" parent="dNxyNK7c78bLwvsdeMH5-20">
          <mxGeometry x="150" y="40" width="50" height="30" as="geometry" />
        </mxCell>
        <mxCell id="6YeagFX_OvJK3ryJQX0Z-64" value="[Yes]" style="text;html=1;align=center;verticalAlign=middle;resizable=0;points=[];autosize=1;strokeColor=none;fillColor=none;" vertex="1" parent="dNxyNK7c78bLwvsdeMH5-20">
          <mxGeometry x="239" y="41" width="50" height="30" as="geometry" />
        </mxCell>
        <mxCell id="6YeagFX_OvJK3ryJQX0Z-68" style="edgeStyle=orthogonalEdgeStyle;rounded=0;orthogonalLoop=1;jettySize=auto;html=1;exitX=0.5;exitY=1;exitDx=0;exitDy=0;entryX=0.003;entryY=0.651;entryDx=0;entryDy=0;entryPerimeter=0;" edge="1" parent="dNxyNK7c78bLwvsdeMH5-20" source="6YeagFX_OvJK3ryJQX0Z-65" target="6YeagFX_OvJK3ryJQX0Z-22">
          <mxGeometry relative="1" as="geometry" />
        </mxCell>
        <mxCell id="6YeagFX_OvJK3ryJQX0Z-76" style="edgeStyle=orthogonalEdgeStyle;rounded=0;orthogonalLoop=1;jettySize=auto;html=1;entryX=0;entryY=0.5;entryDx=0;entryDy=0;" edge="1" parent="dNxyNK7c78bLwvsdeMH5-20" source="6YeagFX_OvJK3ryJQX0Z-65" target="6YeagFX_OvJK3ryJQX0Z-74">
          <mxGeometry relative="1" as="geometry" />
        </mxCell>
        <mxCell id="6YeagFX_OvJK3ryJQX0Z-65" value="" style="rhombus;whiteSpace=wrap;html=1;fontFamily=Helvetica;fontSize=12;fontColor=#000000;align=center;" vertex="1" parent="dNxyNK7c78bLwvsdeMH5-20">
          <mxGeometry x="290" y="45" width="40" height="40" as="geometry" />
        </mxCell>
        <mxCell id="6YeagFX_OvJK3ryJQX0Z-75" style="edgeStyle=orthogonalEdgeStyle;rounded=0;orthogonalLoop=1;jettySize=auto;html=1;" edge="1" parent="dNxyNK7c78bLwvsdeMH5-20" source="6YeagFX_OvJK3ryJQX0Z-74" target="dNxyNK7c78bLwvsdeMH5-30">
          <mxGeometry relative="1" as="geometry">
            <Array as="points">
              <mxPoint x="380" y="30" />
            </Array>
          </mxGeometry>
        </mxCell>
        <mxCell id="6YeagFX_OvJK3ryJQX0Z-74" value="" style="rhombus;whiteSpace=wrap;html=1;fontFamily=Helvetica;fontSize=12;fontColor=#000000;align=center;" vertex="1" parent="dNxyNK7c78bLwvsdeMH5-20">
          <mxGeometry x="360" y="45" width="40" height="40" as="geometry" />
        </mxCell>
        <mxCell id="6YeagFX_OvJK3ryJQX0Z-85" style="edgeStyle=orthogonalEdgeStyle;rounded=0;orthogonalLoop=1;jettySize=auto;html=1;" edge="1" parent="dNxyNK7c78bLwvsdeMH5-20" source="6YeagFX_OvJK3ryJQX0Z-82" target="L6pzd9U-8bud_ZznSoMF-4">
          <mxGeometry relative="1" as="geometry">
            <Array as="points">
              <mxPoint x="920" y="50" />
              <mxPoint x="920" y="110" />
            </Array>
          </mxGeometry>
        </mxCell>
        <mxCell id="6YeagFX_OvJK3ryJQX0Z-90" value="[Yes]" style="edgeLabel;html=1;align=center;verticalAlign=middle;resizable=0;points=[];" vertex="1" connectable="0" parent="6YeagFX_OvJK3ryJQX0Z-85">
          <mxGeometry x="0.3066" y="-1" relative="1" as="geometry">
            <mxPoint as="offset" />
          </mxGeometry>
        </mxCell>
        <mxCell id="6YeagFX_OvJK3ryJQX0Z-87" style="edgeStyle=orthogonalEdgeStyle;rounded=0;orthogonalLoop=1;jettySize=auto;html=1;" edge="1" parent="dNxyNK7c78bLwvsdeMH5-20" source="6YeagFX_OvJK3ryJQX0Z-82" target="6YeagFX_OvJK3ryJQX0Z-86">
          <mxGeometry relative="1" as="geometry" />
        </mxCell>
        <mxCell id="6YeagFX_OvJK3ryJQX0Z-88" value="[No]" style="edgeLabel;html=1;align=center;verticalAlign=middle;resizable=0;points=[];" vertex="1" connectable="0" parent="6YeagFX_OvJK3ryJQX0Z-87">
          <mxGeometry x="0.3485" relative="1" as="geometry">
            <mxPoint as="offset" />
          </mxGeometry>
        </mxCell>
        <mxCell id="6YeagFX_OvJK3ryJQX0Z-82" value="" style="rhombus;whiteSpace=wrap;html=1;fontFamily=Helvetica;fontSize=12;fontColor=#000000;align=center;" vertex="1" parent="dNxyNK7c78bLwvsdeMH5-20">
          <mxGeometry x="830" y="30" width="40" height="40" as="geometry" />
        </mxCell>
        <mxCell id="6YeagFX_OvJK3ryJQX0Z-83" value="Has Available Users?" style="text;html=1;align=center;verticalAlign=middle;resizable=0;points=[];autosize=1;strokeColor=none;fillColor=none;" vertex="1" parent="dNxyNK7c78bLwvsdeMH5-20">
          <mxGeometry x="780" width="140" height="30" as="geometry" />
        </mxCell>
        <mxCell id="6YeagFX_OvJK3ryJQX0Z-86" value="" style="ellipse;html=1;shape=endState;fillColor=strokeColor;" vertex="1" parent="dNxyNK7c78bLwvsdeMH5-20">
          <mxGeometry x="980" y="35" width="30" height="30" as="geometry" />
        </mxCell>
        <mxCell id="dNxyNK7c78bLwvsdeMH5-22" value="User" style="swimlane;html=1;startSize=20;horizontal=0;" parent="dNxyNK7c78bLwvsdeMH5-19" vertex="1">
          <mxGeometry x="20" y="190" width="1600" height="420" as="geometry">
            <mxRectangle x="20" y="240" width="430" height="30" as="alternateBounds" />
          </mxGeometry>
        </mxCell>
        <mxCell id="L6pzd9U-8bud_ZznSoMF-20" style="edgeStyle=orthogonalEdgeStyle;rounded=0;orthogonalLoop=1;jettySize=auto;html=1;exitX=0.5;exitY=1;exitDx=0;exitDy=0;entryX=-0.007;entryY=0.643;entryDx=0;entryDy=0;entryPerimeter=0;" parent="dNxyNK7c78bLwvsdeMH5-22" source="L6pzd9U-8bud_ZznSoMF-5" target="L6pzd9U-8bud_ZznSoMF-15" edge="1">
          <mxGeometry relative="1" as="geometry" />
        </mxCell>
        <mxCell id="L6pzd9U-8bud_ZznSoMF-23" value="[Yes]" style="edgeLabel;html=1;align=center;verticalAlign=middle;resizable=0;points=[];" parent="L6pzd9U-8bud_ZznSoMF-20" vertex="1" connectable="0">
          <mxGeometry x="-0.2947" y="-1" relative="1" as="geometry">
            <mxPoint as="offset" />
          </mxGeometry>
        </mxCell>
        <mxCell id="L6pzd9U-8bud_ZznSoMF-5" value="" style="rhombus;whiteSpace=wrap;html=1;fontFamily=Helvetica;fontSize=12;fontColor=#000000;align=center;" parent="dNxyNK7c78bLwvsdeMH5-22" vertex="1">
          <mxGeometry x="980" y="130" width="40" height="40" as="geometry" />
        </mxCell>
        <mxCell id="L6pzd9U-8bud_ZznSoMF-18" style="edgeStyle=orthogonalEdgeStyle;rounded=0;orthogonalLoop=1;jettySize=auto;html=1;exitX=0.5;exitY=1;exitDx=0;exitDy=0;entryX=0.5;entryY=0;entryDx=0;entryDy=0;" parent="dNxyNK7c78bLwvsdeMH5-22" source="L6pzd9U-8bud_ZznSoMF-12" target="L6pzd9U-8bud_ZznSoMF-5" edge="1">
          <mxGeometry relative="1" as="geometry" />
        </mxCell>
        <mxCell id="L6pzd9U-8bud_ZznSoMF-12" value="Recieve Mission" style="rounded=0;whiteSpace=wrap;html=1;fontFamily=Helvetica;fontSize=12;fontColor=#000000;align=center;" parent="dNxyNK7c78bLwvsdeMH5-22" vertex="1">
          <mxGeometry x="947" y="40" width="106" height="60" as="geometry" />
        </mxCell>
        <mxCell id="L6pzd9U-8bud_ZznSoMF-14" value="Accept Mission?" style="text;html=1;align=center;verticalAlign=middle;resizable=0;points=[];autosize=1;strokeColor=none;fillColor=none;" parent="dNxyNK7c78bLwvsdeMH5-22" vertex="1">
          <mxGeometry x="1010" y="120" width="110" height="30" as="geometry" />
        </mxCell>
        <mxCell id="L6pzd9U-8bud_ZznSoMF-25" style="edgeStyle=orthogonalEdgeStyle;rounded=0;orthogonalLoop=1;jettySize=auto;html=1;" parent="dNxyNK7c78bLwvsdeMH5-22" source="L6pzd9U-8bud_ZznSoMF-15" target="L6pzd9U-8bud_ZznSoMF-24" edge="1">
          <mxGeometry relative="1" as="geometry">
            <Array as="points">
              <mxPoint x="1211" y="200" />
            </Array>
          </mxGeometry>
        </mxCell>
        <mxCell id="L6pzd9U-8bud_ZznSoMF-27" style="edgeStyle=orthogonalEdgeStyle;rounded=0;orthogonalLoop=1;jettySize=auto;html=1;exitX=0.886;exitY=0.414;exitDx=0;exitDy=0;exitPerimeter=0;" parent="dNxyNK7c78bLwvsdeMH5-22" source="L6pzd9U-8bud_ZznSoMF-15" target="L6pzd9U-8bud_ZznSoMF-26" edge="1">
          <mxGeometry relative="1" as="geometry">
            <mxPoint x="1053" y="215" as="sourcePoint" />
            <mxPoint x="1169" y="250.02857142857135" as="targetPoint" />
          </mxGeometry>
        </mxCell>
        <mxCell id="6YeagFX_OvJK3ryJQX0Z-2" style="edgeStyle=orthogonalEdgeStyle;rounded=0;orthogonalLoop=1;jettySize=auto;html=1;entryX=0;entryY=0.5;entryDx=0;entryDy=0;" edge="1" parent="dNxyNK7c78bLwvsdeMH5-22" source="L6pzd9U-8bud_ZznSoMF-15" target="6YeagFX_OvJK3ryJQX0Z-1">
          <mxGeometry relative="1" as="geometry">
            <Array as="points">
              <mxPoint x="1100" y="210" />
              <mxPoint x="1100" y="330" />
            </Array>
          </mxGeometry>
        </mxCell>
        <mxCell id="L6pzd9U-8bud_ZznSoMF-15" value="" style="html=1;points=[];perimeter=orthogonalPerimeter;fillColor=strokeColor;" parent="dNxyNK7c78bLwvsdeMH5-22" vertex="1">
          <mxGeometry x="1037" y="190" width="5" height="50" as="geometry" />
        </mxCell>
        <mxCell id="6YeagFX_OvJK3ryJQX0Z-92" style="edgeStyle=orthogonalEdgeStyle;rounded=0;orthogonalLoop=1;jettySize=auto;html=1;" edge="1" parent="dNxyNK7c78bLwvsdeMH5-22" source="L6pzd9U-8bud_ZznSoMF-24" target="6YeagFX_OvJK3ryJQX0Z-91">
          <mxGeometry relative="1" as="geometry" />
        </mxCell>
        <mxCell id="L6pzd9U-8bud_ZznSoMF-24" value="Send Reponse" style="rounded=0;whiteSpace=wrap;html=1;fontFamily=Helvetica;fontSize=12;fontColor=#000000;align=center;" parent="dNxyNK7c78bLwvsdeMH5-22" vertex="1">
          <mxGeometry x="1264" y="120" width="106" height="60" as="geometry" />
        </mxCell>
        <mxCell id="6YeagFX_OvJK3ryJQX0Z-6" style="edgeStyle=orthogonalEdgeStyle;rounded=0;orthogonalLoop=1;jettySize=auto;html=1;entryX=0.467;entryY=0.221;entryDx=0;entryDy=0;entryPerimeter=0;" edge="1" parent="dNxyNK7c78bLwvsdeMH5-22" source="L6pzd9U-8bud_ZznSoMF-26" target="6YeagFX_OvJK3ryJQX0Z-3">
          <mxGeometry relative="1" as="geometry" />
        </mxCell>
        <mxCell id="L6pzd9U-8bud_ZznSoMF-26" value="Read Mission" style="rounded=0;whiteSpace=wrap;html=1;fontFamily=Helvetica;fontSize=12;fontColor=#000000;align=center;" parent="dNxyNK7c78bLwvsdeMH5-22" vertex="1">
          <mxGeometry x="1158" y="220" width="106" height="60" as="geometry" />
        </mxCell>
        <mxCell id="6YeagFX_OvJK3ryJQX0Z-7" style="edgeStyle=orthogonalEdgeStyle;rounded=0;orthogonalLoop=1;jettySize=auto;html=1;entryX=-0.067;entryY=0.779;entryDx=0;entryDy=0;entryPerimeter=0;" edge="1" parent="dNxyNK7c78bLwvsdeMH5-22" source="6YeagFX_OvJK3ryJQX0Z-1" target="6YeagFX_OvJK3ryJQX0Z-3">
          <mxGeometry relative="1" as="geometry" />
        </mxCell>
        <mxCell id="6YeagFX_OvJK3ryJQX0Z-1" value="View Map" style="rounded=0;whiteSpace=wrap;html=1;fontFamily=Helvetica;fontSize=12;fontColor=#000000;align=center;" vertex="1" parent="dNxyNK7c78bLwvsdeMH5-22">
          <mxGeometry x="1158" y="300" width="106" height="60" as="geometry" />
        </mxCell>
        <mxCell id="6YeagFX_OvJK3ryJQX0Z-26" style="edgeStyle=orthogonalEdgeStyle;rounded=0;orthogonalLoop=1;jettySize=auto;html=1;" edge="1" parent="dNxyNK7c78bLwvsdeMH5-22" source="6YeagFX_OvJK3ryJQX0Z-3" target="6YeagFX_OvJK3ryJQX0Z-8">
          <mxGeometry relative="1" as="geometry" />
        </mxCell>
        <mxCell id="6YeagFX_OvJK3ryJQX0Z-3" value="" style="html=1;points=[];perimeter=orthogonalPerimeter;fillColor=strokeColor;" vertex="1" parent="dNxyNK7c78bLwvsdeMH5-22">
          <mxGeometry x="1294" y="220" width="5" height="140" as="geometry" />
        </mxCell>
        <mxCell id="6YeagFX_OvJK3ryJQX0Z-8" value="Commit Mission" style="rounded=0;whiteSpace=wrap;html=1;fontFamily=Helvetica;fontSize=12;fontColor=#000000;align=center;" vertex="1" parent="dNxyNK7c78bLwvsdeMH5-22">
          <mxGeometry x="1347" y="260" width="106" height="60" as="geometry" />
        </mxCell>
        <mxCell id="6YeagFX_OvJK3ryJQX0Z-47" style="edgeStyle=orthogonalEdgeStyle;rounded=0;orthogonalLoop=1;jettySize=auto;html=1;" edge="1" parent="dNxyNK7c78bLwvsdeMH5-22">
          <mxGeometry relative="1" as="geometry">
            <mxPoint x="1420" y="260" as="sourcePoint" />
            <mxPoint x="1443" y="-45" as="targetPoint" />
          </mxGeometry>
        </mxCell>
        <mxCell id="6YeagFX_OvJK3ryJQX0Z-91" value="" style="ellipse;html=1;shape=endState;fillColor=strokeColor;" vertex="1" parent="dNxyNK7c78bLwvsdeMH5-22">
          <mxGeometry x="1299" y="40" width="35" height="35" as="geometry" />
        </mxCell>
        <mxCell id="6YeagFX_OvJK3ryJQX0Z-49" style="edgeStyle=orthogonalEdgeStyle;rounded=0;orthogonalLoop=1;jettySize=auto;html=1;entryX=0.45;entryY=0.85;entryDx=0;entryDy=0;entryPerimeter=0;" edge="1" parent="dNxyNK7c78bLwvsdeMH5-19" source="L6pzd9U-8bud_ZznSoMF-5" target="6YeagFX_OvJK3ryJQX0Z-44">
          <mxGeometry relative="1" as="geometry" />
        </mxCell>
        <mxCell id="6YeagFX_OvJK3ryJQX0Z-50" value="[No]" style="edgeLabel;html=1;align=center;verticalAlign=middle;resizable=0;points=[];" vertex="1" connectable="0" parent="6YeagFX_OvJK3ryJQX0Z-49">
          <mxGeometry x="-0.5345" y="-1" relative="1" as="geometry">
            <mxPoint as="offset" />
          </mxGeometry>
        </mxCell>
        <mxCell id="6YeagFX_OvJK3ryJQX0Z-52" style="edgeStyle=orthogonalEdgeStyle;rounded=0;orthogonalLoop=1;jettySize=auto;html=1;exitX=0.5;exitY=1;exitDx=0;exitDy=0;" edge="1" parent="dNxyNK7c78bLwvsdeMH5-19" source="L6pzd9U-8bud_ZznSoMF-4" target="L6pzd9U-8bud_ZznSoMF-12">
          <mxGeometry relative="1" as="geometry" />
        </mxCell>
      </root>
    </mxGraphModel>
  </diagram>
</mxfile>
